<?xml version="1.0" standalone="no"?>
<!DOCTYPE svg PUBLIC "-//W3C//DTD SVG 20010904//EN"
 "http://www.w3.org/TR/2001/REC-SVG-20010904/DTD/svg10.dtd">
<svg version="1.0" xmlns="http://www.w3.org/2000/svg"
 width="907.000000pt" height="907.000000pt" viewBox="0 0 907.000000 907.000000"
 preserveAspectRatio="xMidYMid meet">
<metadata>
Created by potrace 1.14, written by Peter Selinger 2001-2017
</metadata>
<g transform="translate(0.000000,907.000000) scale(0.100000,-0.100000)"
fill="#000000" stroke="none">
<path d="M4380 9016 c-379 -131 -683 -259 -1035 -437 -228 -115 -329 -170
-333 -181 -2 -4 -12 -8 -22 -8 -9 0 -23 -7 -30 -15 -7 -8 -17 -15 -22 -15 -8
0 -57 -28 -134 -77 -10 -7 -32 -20 -47 -28 -66 -37 -459 -297 -506 -335 -11
-8 -29 -22 -41 -30 -20 -14 -85 -61 -155 -113 -55 -41 -375 -297 -393 -315
-10 -9 -47 -42 -83 -72 -35 -30 -69 -59 -75 -65 -6 -5 -49 -44 -95 -85 -112
-101 -276 -260 -419 -405 -126 -128 -148 -151 -274 -289 -44 -49 -88 -97 -96
-106 -8 -9 -42 -47 -75 -85 -32 -39 -66 -77 -75 -86 -8 -9 -26 -31 -40 -49
-14 -18 -32 -40 -41 -49 -8 -9 -55 -65 -103 -126 -49 -60 -96 -119 -105 -130
-9 -11 -30 -38 -46 -60 -16 -22 -32 -42 -35 -45 -3 -3 -20 -24 -38 -47 l-33
-43 5 -377 c3 -208 7 -398 10 -423 3 -25 7 -90 10 -145 4 -55 8 -112 11 -126
3 -14 7 -50 10 -80 13 -147 20 -207 40 -344 10 -60 19 -121 20 -135 7 -52 46
-267 60 -325 8 -33 17 -71 19 -85 27 -153 183 -723 226 -825 5 -11 18 -49 30
-85 12 -36 33 -93 46 -127 13 -35 36 -93 50 -130 33 -88 86 -214 151 -363 9
-19 47 -99 84 -178 38 -78 69 -146 69 -151 0 -5 3 -11 8 -13 4 -2 18 -25 32
-53 22 -45 73 -139 135 -251 41 -74 149 -259 158 -269 4 -5 42 -65 85 -132 42
-67 101 -156 130 -198 28 -41 52 -78 52 -80 0 -3 7 -13 16 -22 9 -10 56 -73
105 -141 118 -165 140 -192 164 -197 11 -2 65 -19 120 -38 55 -19 103 -34 108
-35 4 0 45 -11 90 -25 141 -42 472 -129 584 -152 37 -8 77 -17 88 -19 11 -3
73 -16 95 -20 13 -2 39 -8 115 -23 11 -2 58 -10 105 -19 47 -8 96 -17 110 -19
14 -3 45 -8 69 -11 25 -3 48 -7 51 -9 3 -2 30 -6 60 -10 30 -3 69 -8 85 -11
17 -2 50 -6 75 -9 25 -3 64 -7 88 -10 23 -3 61 -7 85 -10 53 -6 146 -15 217
-20 30 -2 100 -7 155 -11 125 -10 836 -10 970 -1 127 9 215 17 355 32 30 3 73
8 95 10 68 7 125 15 260 36 72 11 139 22 150 23 25 4 105 17 125 21 8 2 74 15
145 30 72 15 150 31 174 36 23 5 62 14 84 20 23 6 50 13 59 15 10 2 26 6 36 8
61 14 412 112 442 123 8 3 20 7 27 9 7 1 76 23 153 49 159 53 142 39 282 235
64 89 306 451 345 515 141 232 190 313 199 330 31 58 76 139 115 210 64 115
214 421 295 600 40 90 144 348 144 359 0 6 4 16 8 22 8 9 41 92 46 117 2 6 6
19 9 27 39 95 140 410 187 585 27 100 60 229 65 254 6 23 5 20 35 157 27 119
41 190 44 224 1 14 5 34 9 45 5 17 11 51 22 130 2 11 6 34 8 50 3 17 8 50 11
75 3 25 8 54 10 65 2 11 7 52 10 90 4 39 9 84 12 100 7 45 14 120 19 210 3 44
8 100 11 125 3 25 7 219 9 432 l5 387 -47 68 c-67 98 -86 125 -108 154 -11 14
-27 36 -35 48 -18 28 -83 114 -119 160 -138 177 -171 218 -226 282 -22 25 -53
61 -69 80 -184 219 -515 553 -767 774 -122 107 -314 264 -409 335 -19 14 -54
41 -79 60 -81 63 -292 210 -301 210 -4 0 -10 4 -12 8 -3 8 -154 111 -209 142
-64 37 -224 135 -229 140 -3 3 -15 10 -26 17 -12 7 -64 35 -115 64 -211 118
-693 362 -739 374 -3 1 -22 9 -42 18 -21 9 -55 24 -75 33 -21 9 -51 22 -68 29
-142 65 -787 305 -814 305 -3 0 -76 -24 -161 -54z"/>
</g>
</svg>
